<svg width="180" height="62" viewBox="0 0 180 62" fill="none" xmlns="http://www.w3.org/2000/svg">
<path d="M144.998 44.5188C144.998 44.5188 143.741 43.7622 144.333 42.3956C144.924 41.0289 146.65 40.736 146.946 39.5164C147.241 38.2962 148.819 35.3194 149.46 34.2456C150.101 33.1717 150.791 33.1717 150.791 32.0491C150.791 30.9265 152.763 26.7783 153.305 25.8997C153.847 25.0211 153.601 24.7283 153.896 23.8497C154.192 22.9711 156.903 18.9205 157.002 18.3836C157.1 17.8467 157.149 15.9431 158.234 14.2354C158.234 14.2354 155.573 14.333 155.277 14.5771C154.981 14.8211 155.277 15.358 154.242 16.139C153.206 16.9199 148.967 20.9217 148.031 20.58C147.094 20.2384 145.615 17.4568 146.01 15.9437C146.404 14.4306 147.636 14.2354 147.636 14.2354C147.636 14.2354 149.608 11.9901 150.396 11.161C151.185 10.3312 155.671 9.94073 156.558 9.59906C157.445 9.25739 157.889 8.91573 159.121 8.81811C160.354 8.72049 162.029 8.23239 162.029 8.23239C162.029 8.23239 162.67 8.18358 164.248 7.98834C165.825 7.7931 168.795 8.37882 170.274 7.73209C171.753 7.08536 174.322 6.762 175.468 6.56065C176.614 6.35931 179.553 3.50455 179.922 4.36422C180.292 5.22388 179.331 8.24398 177.575 9.45202C177.575 9.45202 175.06 11.6485 173.933 12.2336C172.806 12.8193 168.739 14.1188 168.055 13.4416C167.371 12.7644 167.575 12.1421 166.891 12.5447C166.207 12.9474 161.271 20.1951 161.086 20.7069C160.902 21.2188 159.293 24.1291 158.72 25.0077C158.147 25.8863 158.314 27.0577 157.537 28.4665C156.761 29.8759 155.99 33.2187 155.177 34.3902C154.364 35.5616 153.501 37.5622 153.378 37.9283C153.254 38.2943 151.578 39.661 151.282 40.2711C150.987 40.8812 151.825 41.4914 150.814 42.1015C149.804 42.7116 148.275 44.5908 146.822 44.664C145.368 44.7372 144.998 44.5176 144.998 44.5176L144.998 44.5188Z" fill="#FFC700"/>
<path d="M147.981 26.1059C147.611 25.4714 146.379 25.1053 146.255 24.4952C146.132 23.8851 146.033 23.1041 145.245 23.1773C144.456 23.2505 143.717 23.7142 143.519 23.397C143.322 23.0797 143.002 21.8594 142.805 21.835C142.607 21.8106 142.583 12.0987 142.583 12.0987C142.583 12.0987 143.076 8.9755 140.488 10.2683C137.9 11.5618 136.495 12.8309 134.942 15.2951C133.389 17.76 124.418 28.838 124.418 28.838C124.418 28.838 123.359 29.2529 123.087 30.2047C122.816 31.1565 122.693 31.4005 122.028 31.4249C121.362 31.4493 119.809 30.5708 117.542 33.0601C115.274 35.5494 115.053 36.8422 115.595 37.4523C116.137 38.0625 117.222 38.7458 116.531 39.2095C115.841 39.6732 114.707 39.1851 114.461 38.7458C114.215 38.3065 113.278 38.8922 113.253 39.7952C113.229 40.6982 112.218 45.725 112.44 46.3351C112.662 46.9452 113.401 47.4333 113.968 47.2137C114.535 46.994 116.088 46.3107 116.112 45.603C116.137 44.8952 117.665 43.3089 118.331 42.797C118.996 42.2845 119.662 41.7232 120.007 40.1131C120.352 38.5024 121.757 36.6238 122.324 36.7946C122.891 36.9655 123.556 36.0625 124.222 35.8184C124.887 35.5744 125.725 35.3791 126.292 34.9399C126.859 34.5006 128.067 34.5738 128.24 34.1345C128.412 33.6952 128.338 33.1827 129.595 32.9631C130.852 32.7434 130.794 32.0784 131.709 31.8496C132.624 31.6208 133.9 31.2364 135.082 30.7422C136.265 30.248 136.653 31.0717 136.653 31.0717C136.653 31.0717 136.49 34.1766 135.855 37.3553C135.855 37.3553 134.672 44.4809 135.51 45.5053C136.348 46.5303 136.841 47.1893 137.753 46.0178C138.665 44.8464 142.362 42.7238 142.288 41.6012C142.214 40.4785 141.844 40.4297 142.165 40.0881C142.485 39.7464 142.561 38.3553 142.289 37.4529C142.018 36.5506 142.683 29.5714 142.683 29.5714C142.683 29.5714 144.802 28.1803 146.478 28.2535C148.154 28.3267 148.351 26.7404 147.981 26.1059H147.981ZM136.976 24.7209C136.884 25.4897 137.198 26.716 136.514 27.0272C135.83 27.3383 131.727 28.4 131.172 28.4732C130.618 28.5464 128.233 29.9741 127.586 29.4982C127.586 29.4982 129.324 27.3017 130.174 26.3872C131.024 25.472 130.858 24.7581 131.431 23.8613C132.004 22.9644 132.152 23.2755 132.891 22.159C133.631 21.0425 134.833 18.9382 135.276 19.3409C135.72 19.7435 135.239 22.2688 135.701 22.763C136.164 23.2572 137.069 23.9528 136.977 24.7215L136.976 24.7209Z" fill="#FFC700"/>
<path d="M81.6044 48.2265C81.3166 47.3809 82.0665 46.6341 82.1959 45.9385C82.3253 45.243 82.1035 44.5109 82.769 44.2729C83.4345 44.035 84.3958 43.9984 84.6731 43.1198C84.9504 42.2412 85.7084 39.3498 86.0781 38.7824C86.4478 38.215 87.1133 37.1717 87.2242 36.6958C87.3352 36.2199 87.6864 35.7257 88.0561 34.5543C88.4259 33.3828 88.4444 31.4616 88.9065 30.7111C89.3687 29.9607 90.1451 28.8441 90.256 28.4964C90.367 28.1486 90.6812 27.3615 90.6812 26.5379C90.6812 25.7142 90.7367 23.0974 90.977 22.6215C91.2173 22.1456 91.2913 21.2121 90.977 20.8094C90.6627 20.4068 89.3872 20.2237 89.1099 18.9974C88.8326 17.771 89.0359 17.3317 89.5905 17.0389C90.1451 16.746 91.8459 16.5447 92.6217 16.0688C93.3981 15.5929 94.7661 15.2268 95.0619 14.7143C95.3577 14.2018 97.0769 12.646 98.2595 12.7741C99.442 12.9023 100.478 12.4081 100.515 13.3782C100.552 14.3483 99.7199 16.361 99.7199 16.5441C99.7199 16.7271 99.5905 20.5886 100.034 20.8448C100.478 21.1011 100.201 21.7417 100.663 22.7118C101.125 23.6819 101.008 24.5971 101.251 25.2194C101.494 25.8417 102.566 27.0315 102.659 28.184C102.751 29.3371 103.675 31.7892 103.99 31.4597C104.304 31.1303 105.616 26.3353 107.076 25.3835C108.537 24.4317 109.443 20.8631 110.292 19.948C111.143 19.0328 111.771 17.2396 112.233 16.4709C112.696 15.7021 113.564 14.7503 113.916 14.2195C114.267 13.6887 114.785 12.7186 115.117 11.895C115.45 11.0713 116.837 10.3757 117.132 9.55208C117.428 8.72842 118.63 6.36786 119.61 6.18482C120.589 6.00178 123.214 7.13661 123.584 7.70402C123.953 8.27144 125.247 9.64421 124.822 10.3208C124.397 10.9981 122.678 14.1091 121.366 14.0908C120.053 14.0725 118.187 13.9627 117.891 14.3287C117.595 14.6948 115.58 18.0072 115.119 18.6661C114.657 19.325 112.863 21.9235 112.365 23.5892C111.866 25.2548 111.034 27.414 110.793 27.7252C110.553 28.0363 110.183 29.9948 109.555 30.2877C108.926 30.5806 108.908 34.8264 108.815 35.5402C108.723 36.2541 108.538 36.6568 108.409 37.2242C108.279 37.7916 108.409 38.1394 108.593 38.2675C108.778 38.3956 109.333 41.9276 108.519 42.8977C107.706 43.8678 106.338 46.7043 105.451 46.8324C104.564 46.9605 105.082 46.7775 104.398 47.1435C103.714 47.5096 102.087 49.6328 101.459 48.8458C100.83 48.0587 100.682 45.6066 100.738 44.9843C100.793 44.362 101.625 42.1296 100.83 41.013C100.035 39.8965 99.0926 38.4688 99.0741 37.9752C99.0556 37.481 98.0204 36.3096 97.9279 35.8886C97.8355 35.4676 97.5952 34.2047 97.3733 33.6922C97.1515 33.1797 96.8557 32.4292 96.6709 31.8801C96.486 31.331 95.5062 29.1535 95.4507 29.0254C95.3953 28.8972 94.5634 26.6276 94.1382 28.0187C93.713 29.4097 93.5836 30.6721 93.4357 31.3859C93.2878 32.0998 92.9366 32.2828 92.6963 33.3444C92.4559 34.406 92.2711 34.8819 92.0677 35.1565C91.8644 35.431 91.3467 36.877 91.2543 37.4993C91.1619 38.1217 90.9585 39.3114 90.5148 40.0435C90.0712 40.7757 89.7199 41.3797 89.3132 42.2217C88.9065 43.0637 89.0174 43.4846 88.3704 44.3998C87.7234 45.315 87.1318 47.523 86.5649 47.9501C85.998 48.3772 84.6793 49.6341 83.8788 49.5486C83.0777 49.4632 82.0425 49.512 81.605 48.2247L81.6044 48.2265Z" fill="#FFC700"/>
<path d="M59.8229 49.174C58.0482 49.2106 51.6161 50.6017 52.7617 47.7097C53.9079 44.8183 53.6121 44.9282 54.9431 41.8898C56.2741 38.852 59.3792 33.0686 59.1944 31.8606C59.0095 30.6525 58.8247 29.8472 59.5271 29.2981C60.2296 28.749 61.0061 27.6507 61.1909 26.882C61.3758 26.1132 61.6716 25.3811 61.7825 23.954C61.8934 22.5263 62.6329 21.9406 61.5607 21.5745C60.4884 21.2085 59.4902 20.6593 60.5254 18.7564C61.5607 16.8528 64.1481 16.1213 65.8859 16.0114C67.6236 15.9016 69.3607 14.6936 69.7674 14.6936C70.1741 14.6936 71.0985 15.4623 71.8749 15.6454C72.6513 15.8284 74.7582 15.9016 75.6455 15.7552C76.5329 15.6088 77.679 15.8284 78.0857 15.9382C78.4924 16.048 79.121 16.2311 79.8604 15.7552C80.5999 15.2793 82.6328 13.1561 84.0378 13.8516C85.4428 14.5471 85.6646 16.7064 83.5571 18.1341C81.4497 19.5617 81.5606 20.1475 80.6739 20.5135C79.7865 20.8796 79.3059 20.5501 77.9385 21.2457C76.5705 21.9412 75.794 22.893 74.9812 22.3439C74.1678 21.7948 69.4729 22.0144 69.4729 22.0144L67.1806 28.1638C67.1806 28.1638 66.6999 28.7862 68.3637 28.5665C70.0275 28.3469 71.2839 28.0174 72.1343 28.0174C72.9847 28.0174 72.2452 27.4317 73.4284 27.3951C74.6115 27.3585 77.8275 27.5781 76.9772 29.3719C76.1268 31.1656 73.946 33.3615 72.2822 33.7276C70.6184 34.0936 67.4763 34.2034 66.1823 34.3499C64.8882 34.4963 63.9639 34.4597 63.4839 34.9722C63.0032 35.4847 59.4175 42.1832 59.9351 42.8416C60.4527 43.5005 62.7074 44.0496 64.63 43.6835C66.5526 43.3175 69.8426 42.8782 70.5821 42.4755C71.3215 42.0728 72.3198 38.8886 73.4284 38.4859C74.5376 38.0832 75.7577 38.4493 76.2377 37.9734C76.7184 37.4975 79.3428 37.7904 79.7865 39.3279C80.2302 40.8654 79.2319 43.9764 77.716 44.5255C76.2001 45.0746 76.1262 44.5987 75.4237 45.4407C74.7212 46.2826 74.4994 47.3809 73.4271 47.3077C72.3549 47.2344 72.2009 47.8946 71.0732 47.9422C67.4622 48.0941 68.2515 48.2594 67.7709 48.296C66.3659 48.4028 59.8229 49.1746 59.8229 49.1746V49.174Z" fill="#FFC700"/>
<path d="M56.9027 25.7319C56.2002 24.4323 54.2221 25.1828 53.7236 25.073C53.2245 24.9631 53.3354 23.8466 53.2799 23.2792C53.2245 22.7118 50.3227 23.8283 48.548 22.9314C46.7733 22.0346 38.9917 21.1377 38.0859 20.7716C37.18 20.4055 40.4521 18.3006 41.1355 17.8619C41.8195 17.4226 44.1112 15.8668 47.864 13.1219C51.6161 10.377 51.764 9.0957 52.5035 7.26533C53.243 5.43497 50.5254 3.60521 49.232 3.98959C47.9379 4.37397 47.18 3.58691 44.8143 3.5686C42.4481 3.5503 40.8588 3.11101 40.3782 2.5436C39.8975 1.97619 38.2523 1.15252 35.8126 0.804751C33.3724 0.456981 31.0253 1.28065 29.8421 0.896269C28.659 0.511892 25.4608 0 22.3366 0C19.2124 0 20.5989 0.640628 19.7855 1.77546C18.9721 2.91028 16.2921 4.66682 14.7208 5.63692C13.1494 6.60701 13.5746 7.15612 13.9074 9.20552C14.2401 11.2555 15.9224 10.3953 17.2713 10.5051C18.6208 10.6149 23.5253 9.30924 23.5253 9.30924C23.5253 9.30924 23.0816 11.8962 22.6872 12.8717C22.2929 13.8479 20.9618 15.3122 20.7646 15.6533C20.5674 15.995 19.9266 18.5325 19.5815 19.8015C19.2364 21.0706 17.3138 23.0223 16.2792 24.3402C15.2439 25.6581 14.5045 28.4884 14.0608 29.6111C13.6171 30.7337 13.6664 30.9777 12.927 34.8331C12.1875 38.6885 10.4128 39.7623 9.13169 42.0563C7.84996 44.3504 5.73079 46.595 5.6322 47.6688C5.5336 48.7427 4.54766 49.9629 3.95609 50.9873C3.36452 52.0123 3.95609 53.3302 1.49122 54.5986C-0.973647 55.8677 0.357381 58.7956 0.357381 58.7956C0.449814 59.0336 1.31868 59.1129 2.42787 59.1495C3.53706 59.1861 4.79414 58.3441 6.01363 57.9415C7.23374 57.5388 8.15807 57.2825 8.71205 57.2825C9.26603 57.2825 13.481 55.9647 15.4035 55.4522C17.3261 54.9397 19.6179 53.2191 20.9119 52.6706C22.206 52.1215 25.2002 50.3644 26.827 49.4132C28.4538 48.4614 30.006 47.8757 31.7068 47.1069C33.4076 46.3382 34.9968 45.6792 36.5866 44.764C38.1765 43.8489 41.8362 41.7995 43.3151 40.7745C44.794 39.7495 47.7143 39.1271 49.0823 38.3584C50.4503 37.5896 50.4133 35.9057 52.705 34.7715C54.9973 33.6366 58.0285 29.2261 58.2873 28.3841C58.5461 27.5421 57.6033 27.0296 56.9008 25.7301L56.9027 25.7319ZM26.8652 17.8625C27.7156 16.3983 26.7543 17.0938 27.9004 15.7027C29.0466 14.3116 29.1575 13.7625 29.6382 12.8113C30.1188 11.8602 30.4516 11.5667 31.0801 10.5783C31.7086 9.5899 31.9305 8.89436 32.7439 8.56489C33.5573 8.23543 37.6237 7.39346 38.4001 8.52829C39.1766 9.66311 39.2135 10.7247 39.5093 11.6027C39.8051 12.4807 40.1748 13.067 39.7681 13.5795C39.3614 14.092 37.9195 14.275 36.2933 14.9706C34.6665 15.6661 33.5949 16.0322 33.0033 16.8009C32.4117 17.5697 32.1529 18.4483 30.9698 18.5947C29.7867 18.7411 29.7497 18.7777 27.9386 19.217C26.127 19.6563 25.3875 19.8027 25.3875 19.8027C25.4614 19.5465 26.016 19.3268 26.8664 17.8625H26.8652ZM46.976 33.492C45.8299 34.1144 40.9501 36.6031 39.139 37.7379C37.3273 38.8727 35.1835 39.6415 33.5937 40.5926C32.0038 41.5444 30.7843 42.3498 29.86 42.8623C28.9357 43.3748 26.0894 44.5828 25.202 44.8391C24.3147 45.0953 22.5775 45.9373 21.4314 46.3766C20.2852 46.8159 18.2893 48.3168 17.4019 48.573C16.5146 48.8293 14.9987 49.0855 14.2598 49.3418C13.5204 49.598 12.8912 49.6176 13.0397 49.3418C13.0397 49.3418 15.0733 45.5352 16.0339 44.2906C16.9952 43.0459 17.328 42.4602 17.9565 41.1796C18.5851 39.8983 19.2506 39.8617 19.3985 38.9465C19.5464 38.0314 19.5464 33.2364 21.0992 32.1016C22.6521 30.9667 25.9051 30.381 27.458 30.381C29.0108 30.381 29.5654 30.4909 31.0068 30.198C32.4487 29.9051 36.0715 29.7587 38.9547 29.9417C41.838 30.1248 44.8328 29.9417 45.3874 31.1864C45.942 32.431 48.1228 32.8703 46.9773 33.4927L46.976 33.492Z" fill="#FFC700"/>
<path d="M21.188 62C21.188 62 29.4687 53.3619 50.6148 53.1789C71.7609 52.9958 100.461 54.4845 118.304 54.3869C136.148 54.2893 155.569 48.4327 164.441 44.4309C173.313 40.4291 176.37 37.1101 176.37 37.1101C176.37 37.1101 159.413 51.7512 141.965 54.9726C124.515 58.1935 127.549 59.0922 81.5113 57.238C61.6365 56.4375 41.9767 53.4113 21.188 62.0006V62Z" fill="#1940C5"/>
</svg>
