<svg width="18" height="19" viewBox="0 0 18 19" fill="none" xmlns="http://www.w3.org/2000/svg">
<path d="M16.7143 8.00307H10.9286V2.21735C10.9286 1.5074 10.3528 0.931641 9.64286 0.931641H8.35714C7.64719 0.931641 7.07143 1.5074 7.07143 2.21735V8.00307H1.28571C0.575759 8.00307 0 8.57883 0 9.28878V10.5745C0 11.2845 0.575759 11.8602 1.28571 11.8602H7.07143V17.6459C7.07143 18.3559 7.64719 18.9316 8.35714 18.9316H9.64286C10.3528 18.9316 10.9286 18.3559 10.9286 17.6459V11.8602H16.7143C17.4242 11.8602 18 11.2845 18 10.5745V9.28878C18 8.57883 17.4242 8.00307 16.7143 8.00307Z" fill="white"/>
</svg>
